<?xml version="1.0" encoding="UTF-8" standalone="no"?>
<!DOCTYPE svg PUBLIC "-//W3C//DTD SVG 1.1//EN" "http://www.w3.org/Graphics/SVG/1.1/DTD/svg11.dtd">
<svg width="100%" height="100%" viewBox="0 0 785 365" version="1.1" xmlns="http://www.w3.org/2000/svg" xmlns:xlink="http://www.w3.org/1999/xlink" xml:space="preserve" xmlns:serif="http://www.serif.com/" style="fill-rule:evenodd;clip-rule:evenodd;stroke-linejoin:round;stroke-miterlimit:2;">
    <g id="Tavola-da-disegno1" serif:id="Tavola da disegno1" transform="matrix(0.717001,0,0,0.675398,-354.684,-189.898)">
        <rect x="494.678" y="281.165" width="1094.14" height="539.943" style="fill:none;"/>
        <g id="Layer-1" serif:id="Layer 1" transform="matrix(1.3947,0,0,1.48061,-279.672,-249.186)">
            <g>
                <g transform="matrix(1,0,0,1,617.322,411.741)">
                    <path d="M0,-6.033C10.503,-9.189 16.505,-15.772 16.505,-27.298C16.505,-43.895 2.047,-51.033 -17.462,-51.033L-58.527,-51.033C-59.072,-51.033 -59.616,-50.483 -59.616,-49.933L-59.209,-3.014L-59.616,43.9C-59.616,44.45 -59.072,45 -58.527,45L-16.78,45C1.497,45 19.097,36.768 19.097,15.915C19.097,5.351 12.824,-3.157 0,-6.033M-38.743,-36.488L-17.193,-36.488C-10.096,-36.488 -4.231,-32.787 -4.231,-24.279C-4.231,-16.459 -9.138,-12.346 -17.193,-12.346L-39.018,-12.346L-38.743,-36.488ZM-17.193,30.455L-38.743,30.455L-39.018,2.199L-17.193,2.199C-8.869,2.199 -1.914,5.763 -1.914,15.915C-1.914,27.166 -8.599,30.455 -17.193,30.455" style="fill:rgb(255,244,213);fill-rule:nonzero;"/>
                </g>
                <g transform="matrix(1,0,0,1,707.084,376.211)">
                    <path d="M0,65.028L-45.835,65.028L-46.11,37.592L-5.045,37.592C-4.506,37.592 -3.956,37.042 -3.956,36.493L-3.956,23.185C-3.956,22.635 -4.506,22.085 -5.045,22.085L-46.11,22.085L-45.835,0L-1.089,0C-0.545,0 0,-0.55 0,-1.095L0,-14.403C0,-14.953 -0.545,-15.502 -1.089,-15.502L-65.619,-15.502C-66.163,-15.502 -66.708,-14.953 -66.708,-14.403L-66.301,32.516L-66.708,79.431C-66.708,79.98 -66.163,80.53 -65.619,80.53L0,80.53C0.545,80.53 1.095,79.98 1.095,79.431L1.095,66.123C1.095,65.578 0.545,65.028 0,65.028" style="fill:rgb(255,244,213);fill-rule:nonzero;"/>
                </g>
                <g transform="matrix(1,0,0,1,775.296,456.742)">
                    <path d="M0,-96.033L-62.483,-96.033C-63.027,-96.033 -63.572,-95.483 -63.572,-94.933L-63.165,-48.014L-63.572,-1.1C-63.572,-0.55 -63.027,0 -62.483,0L-43.793,0C-43.243,0 -42.699,-0.55 -42.699,-1.1L-42.974,-38.687L-1.909,-38.687C-1.369,-38.687 -0.82,-39.237 -0.82,-39.787L-0.82,-53.095C-0.82,-53.645 -1.369,-54.195 -1.909,-54.195L-42.974,-54.195L-42.699,-80.531L0,-80.531C0.545,-80.531 1.089,-81.08 1.089,-81.625L1.089,-94.933C1.089,-95.483 0.545,-96.033 0,-96.033" style="fill:rgb(255,244,213);fill-rule:nonzero;"/>
                </g>
                <g transform="matrix(1,0,0,1,826.996,458.796)">
                    <path d="M0,-100.146C-29.33,-100.146 -48.156,-80.388 -48.156,-49.795C-48.156,-20.435 -29.192,0 0,0C29.192,0 48.289,-20.435 48.289,-49.795C48.289,-80.8 29.06,-100.146 0,-100.146M0.137,-16.047C-17.05,-16.047 -26.738,-28.942 -26.738,-49.795C-26.738,-71.198 -17.462,-84.094 0,-84.094C17.462,-84.094 26.876,-70.786 26.876,-49.795C26.876,-28.805 17.325,-16.047 0.137,-16.047" style="fill:rgb(255,244,213);fill-rule:nonzero;"/>
                </g>
                <g transform="matrix(1,0,0,1,963.55,360.707)">
                    <path d="M0,96.033L65.619,96.033C66.163,96.033 66.713,95.483 66.713,94.933L66.713,81.625C66.713,81.081 66.163,80.531 65.619,80.531L19.779,80.531L19.509,53.095L60.573,53.095C61.113,53.095 61.663,52.545 61.663,51.995L61.663,38.687C61.663,38.137 61.113,37.588 60.573,37.588L19.509,37.588L19.779,15.503L64.529,15.503C65.074,15.503 65.619,14.953 65.619,14.408L65.619,1.1C65.619,0.55 65.074,0 64.529,0L0,0C-0.545,0 -1.089,0.55 -1.089,1.1L-0.682,48.019L-1.089,94.933C-1.089,95.483 -0.545,96.033 0,96.033" style="fill:rgb(255,244,213);fill-rule:nonzero;"/>
                </g>
                <g transform="matrix(1,0,0,1,872.476,580.286)">
                    <path d="M0,-96.033L-74.212,-96.033C-74.757,-96.033 -75.307,-95.483 -75.307,-94.933L-75.307,-81.625C-75.307,-81.081 -74.757,-80.531 -74.212,-80.531L-47.612,-80.531L-47.204,-48.014L-47.887,-1.1C-47.887,-0.55 -47.337,0 -46.792,0L-27.42,0C-26.876,0 -26.326,-0.55 -26.326,-1.1L-27.013,-48.014L-26.601,-80.531L0,-80.531C0.545,-80.531 1.089,-81.081 1.089,-81.625L1.089,-94.933C1.089,-95.483 0.545,-96.033 0,-96.033" style="fill:rgb(255,244,213);fill-rule:nonzero;"/>
                </g>
                <g transform="matrix(1,0,0,1,955.78,580.286)">
                    <path d="M0,-96.033L-18.827,-96.033C-19.372,-96.033 -19.916,-95.483 -19.916,-94.933L-19.641,-58.99L-55.564,-58.99L-55.289,-94.933C-55.289,-95.483 -55.834,-96.033 -56.384,-96.033L-75.205,-96.033C-75.755,-96.033 -76.3,-95.483 -76.3,-94.933L-75.887,-48.014L-76.3,-1.1C-76.3,-0.55 -75.755,0 -75.205,0L-56.384,0C-55.834,0 -55.289,-0.55 -55.289,-1.1L-55.564,-43.488L-19.641,-43.488L-19.916,-1.1C-19.916,-0.55 -19.372,0 -18.827,0L0,0C0.545,0 1.089,-0.55 1.089,-1.1L0.682,-48.014L1.089,-94.933C1.089,-95.483 0.545,-96.033 0,-96.033" style="fill:rgb(255,244,213);fill-rule:nonzero;"/>
                </g>
                <g transform="matrix(1,0,0,1,1029.31,499.755)">
                    <path d="M0,65.028L-45.84,65.028L-46.11,37.592L-5.045,37.592C-4.506,37.592 -3.956,37.042 -3.956,36.493L-3.956,23.185C-3.956,22.635 -4.506,22.085 -5.045,22.085L-46.11,22.085L-45.84,0L-1.089,0C-0.545,0 0,-0.55 0,-1.095L0,-14.403C0,-14.953 -0.545,-15.502 -1.089,-15.502L-65.619,-15.502C-66.163,-15.502 -66.708,-14.953 -66.708,-14.403L-66.301,32.516L-66.708,79.431C-66.708,79.98 -66.163,80.53 -65.619,80.53L0,80.53C0.545,80.53 1.095,79.98 1.095,79.431L1.095,66.123C1.095,65.578 0.545,65.028 0,65.028" style="fill:rgb(255,244,213);fill-rule:nonzero;"/>
                </g>
                <g transform="matrix(1,0,0,1,1103.58,617.5)">
                    <path d="M0,65.028L-45.835,65.028L-46.11,37.592L-5.045,37.592C-4.506,37.592 -3.956,37.042 -3.956,36.493L-3.956,23.185C-3.956,22.635 -4.506,22.085 -5.045,22.085L-46.11,22.085L-45.835,0L-1.089,0C-0.545,0 0,-0.55 0,-1.095L0,-14.403C0,-14.953 -0.545,-15.502 -1.089,-15.502L-65.619,-15.502C-66.163,-15.502 -66.713,-14.953 -66.713,-14.403L-66.301,32.516L-66.713,79.431C-66.713,79.98 -66.163,80.53 -65.619,80.53L0,80.53C0.545,80.53 1.095,79.98 1.095,79.431L1.095,66.123C1.095,65.578 0.545,65.028 0,65.028" style="fill:rgb(255,244,213);fill-rule:nonzero;"/>
                </g>
                <g transform="matrix(1,0,0,1,1189.66,698.031)">
                    <path d="M0,-96.033L-17.187,-96.033C-17.732,-96.033 -18.282,-95.483 -18.282,-94.933L-18.282,-45.55L-17.462,-27.166L-55.798,-95.071C-56.068,-95.621 -56.75,-96.033 -57.432,-96.033L-80.352,-96.033C-80.897,-96.033 -81.442,-95.483 -81.442,-94.933L-81.167,-48.019L-81.442,-1.1C-81.442,-0.55 -80.897,0 -80.352,0L-63.165,0C-62.615,0 -62.07,-0.55 -62.07,-1.1L-62.07,-45.825L-62.753,-65.716L-62.89,-68.322L-25.374,-0.962C-25.099,-0.413 -24.417,0 -23.735,0L0,0C0.545,0 1.094,-0.55 1.094,-1.1L0.82,-48.019L1.094,-94.933C1.094,-95.483 0.545,-96.033 0,-96.033" style="fill:rgb(255,244,213);fill-rule:nonzero;"/>
                </g>
                <g transform="matrix(1,0,0,1,1231.27,698.03)">
                    <path d="M0,-96.033L-33.693,-96.033C-34.242,-96.033 -34.787,-95.483 -34.787,-94.933L-34.375,-48.014L-34.787,-1.1C-34.787,-0.55 -34.242,0 -33.693,0L0.275,0C27.151,0 50.615,-13.308 50.615,-47.332C50.615,-81.218 27.42,-96.033 0,-96.033M1.364,-15.503L-13.914,-15.503C-13.914,-15.64 -14.189,-32.099 -14.189,-48.426C-14.189,-64.341 -13.914,-80.393 -13.914,-80.531L0.82,-80.531C16.918,-80.531 29.192,-70.242 29.192,-47.469C29.192,-24.692 16.78,-15.503 1.364,-15.503" style="fill:rgb(255,244,213);fill-rule:nonzero;"/>
                </g>
                <g transform="matrix(1,0,0,1,1335.91,721.35)">
                    <path d="M0,-14.265L-51.023,-14.265C-51.567,-14.265 -52.112,-13.715 -52.112,-13.17L-52.112,-1.1C-52.112,-0.55 -51.567,0 -51.023,0L0,0C0.545,0 1.095,-0.55 1.095,-1.1L1.095,-13.17C1.095,-13.715 0.545,-14.265 0,-14.265" style="fill:rgb(255,244,213);fill-rule:nonzero;"/>
                </g>
                <g transform="matrix(1,0,0,1,956.08,383.372)">
                    <path d="M0,50.34C-0.733,44.012 -2.459,39.221 -5.198,35.968C-7.932,32.715 -11.898,30.765 -17.096,30.123C-11.353,28.382 -6.954,25.445 -3.895,21.321C-0.845,17.192 0.682,12.06 0.682,5.915C0.682,-3.529 -2.576,-10.707 -9.098,-15.61C-15.619,-20.517 -24.941,-22.971 -37.068,-22.971L-75.638,-22.971C-76.733,-22.971 -77.277,-22.421 -77.277,-21.322L-76.733,19.941L-77.277,71.661C-77.277,72.761 -76.733,73.311 -75.638,73.311L-57.717,73.311C-56.623,73.311 -56.078,72.761 -56.078,71.661L-56.353,37.551L-36.111,37.551C-30.73,37.551 -26.967,38.834 -24.824,41.4C-22.686,43.966 -21.153,48.92 -20.242,56.256L-18.328,71.799C-18.241,72.807 -17.691,73.311 -16.683,73.311L0.957,73.311C2.143,73.311 2.647,72.715 2.459,71.524L0,50.34ZM-24.004,18.501C-27.059,20.929 -30.959,22.146 -35.699,22.146L-56.49,22.146L-56.49,19.391L-56.216,-7.566L-36.243,-7.566C-30.867,-7.566 -26.718,-6.303 -23.801,-3.783C-20.884,-1.263 -19.417,2.428 -19.417,7.29C-19.417,12.33 -20.955,16.072 -24.004,18.501" style="fill:rgb(255,244,213);fill-rule:nonzero;"/>
                </g>
            </g>
        </g>
    </g>
</svg>
